<?xml version="1.0" standalone="no"?>
<!DOCTYPE svg PUBLIC "-//W3C//DTD SVG 20010904//EN"
 "http://www.w3.org/TR/2001/REC-SVG-20010904/DTD/svg10.dtd">
<svg version="1.0" xmlns="http://www.w3.org/2000/svg"
 width="537.000000pt" height="171.000000pt" viewBox="0 0 537.000000 171.000000"
 preserveAspectRatio="xMidYMid meet">

<g transform="translate(0.000000,171.000000) scale(0.100000,-0.100000)"
fill="#fa5a96" stroke="none">
<path d="M486 1513 c-3 -16 -8 -47 -11 -70 -4 -25 -13 -44 -23 -48 -13 -5 -14
-8 -3 -14 21 -13 6 -101 -18 -101 -31 0 -31 -11 5 208 6 38 5 42 -14 42 -12 0
-23 -4 -26 -8 -2 -4 -12 -63 -22 -130 -16 -104 -21 -122 -36 -122 -22 0 -23
18 -3 125 20 110 19 125 -4 125 -24 0 -25 -5 -47 -147 -15 -101 -19 -113 -36
-113 -19 0 -20 4 -13 55 l6 55 -33 0 c-18 0 -50 -5 -70 -11 -41 -11 -51 -30
-52 -104 -1 -37 1 -40 24 -38 253 18 443 43 460 59 12 12 9 14 -28 14 -37 0
-42 3 -41 23 2 45 15 71 39 78 l25 7 -24 1 c-23 1 -23 2 -16 71 7 66 6 70 -13
70 -14 0 -22 -8 -26 -27z m-301 -205 c-9 -54 -12 -58 -37 -58 -19 0 -20 4 -14
42 7 42 19 58 44 58 11 0 12 -10 7 -42z"/>
<path d="M981 1434 c-20 -25 -21 -25 -21 -5 0 35 -46 28 -71 -11 l-20 -33 7
29 7 28 -88 -7 c-138 -12 -139 -12 -149 -78 -12 -82 -9 -85 64 -76 35 4 66 13
70 19 4 7 11 34 14 61 6 42 20 69 31 58 2 -2 -1 -28 -7 -58 -15 -84 19 -95 61
-21 12 22 23 40 24 40 1 0 2 -16 2 -37 0 -51 19 -52 54 -2 l31 42 0 -38 0 -38
42 7 c22 4 45 9 50 12 17 11 7 24 -18 24 -24 0 -25 2 -22 53 3 47 1 52 -18 55
-14 2 -29 -7 -43 -24z m-231 -55 c0 -41 -16 -69 -40 -69 -16 0 -20 7 -20 31 0
41 16 69 40 69 16 0 20 -7 20 -31z"/>
<path d="M3280 1289 c-121 -24 -252 -129 -314 -251 -65 -130 -72 -294 -16
-422 19 -44 19 -49 4 -78 -22 -43 -29 -138 -14 -192 16 -57 72 -123 124 -147
94 -43 218 -9 278 75 43 62 73 62 115 3 44 -64 105 -90 192 -85 87 5 138 36
181 111 41 72 43 168 4 246 -25 49 -25 53 -9 65 15 11 17 33 18 167 l1 154
-34 70 -35 70 -228 5 c-126 3 -235 1 -243 -3 -19 -11 -18 -43 2 -51 9 -3 109
-6 224 -6 l209 0 22 -57 c26 -70 31 -203 10 -275 -7 -27 -14 -48 -15 -48 0 0
-19 7 -41 15 -82 29 -164 14 -227 -43 -53 -48 -78 -102 -78 -174 0 -32 -4 -58
-10 -58 -5 0 -10 17 -10 38 0 88 -57 185 -131 222 -52 27 -151 27 -204 0 -22
-11 -40 -20 -41 -20 -7 0 -35 104 -40 150 -18 164 83 353 229 424 29 15 85 32
123 39 63 12 69 15 69 38 0 21 -5 24 -35 26 -19 1 -55 -3 -80 -8z m426 -661
c7 -7 -59 -147 -72 -152 -7 -3 -17 18 -27 57 -9 34 -19 72 -23 84 -5 18 -1 22
23 25 27 3 90 -6 99 -14z m-557 -25 c0 -21 -4 -60 -8 -88 l-7 -50 -42 45 c-52
55 -60 77 -35 96 16 12 63 30 86 33 4 1 7 -16 6 -36z m104 4 c20 -11 37 -23
37 -27 0 -3 -30 -35 -66 -70 l-66 -65 6 64 c3 35 6 79 6 98 0 31 2 34 23 28
12 -4 39 -17 60 -28z m312 -4 c13 -34 44 -148 40 -151 -2 -2 -35 13 -74 34
-70 39 -70 39 -55 64 16 26 64 70 75 70 4 0 10 -8 14 -17z m165 -14 c-7 -11
-14 -19 -16 -16 -7 7 7 37 17 37 6 0 5 -9 -1 -21z m-400 -71 c11 -24 20 -58
20 -77 l0 -34 -72 6 c-39 3 -76 11 -81 16 -7 7 8 30 44 70 30 33 58 60 62 60
4 1 17 -18 27 -41z m475 12 c22 -42 20 -45 -27 -59 -24 -7 -52 -15 -63 -18
-13 -4 -7 8 23 42 23 26 42 52 42 56 0 17 10 9 25 -21z m-735 -88 c12 -10 4
-12 -45 -10 l-60 3 4 30 c1 17 7 38 12 47 9 16 13 14 42 -20 18 -20 39 -43 47
-50z m453 26 l60 -32 -41 -18 c-22 -10 -55 -21 -71 -24 -30 -6 -31 -6 -31 34
0 40 8 72 17 72 3 0 32 -15 66 -32z m305 -59 c-7 -74 -15 -77 -97 -31 l-71 39
72 21 c105 29 101 30 96 -29z m-716 -8 c5 -4 -17 -31 -47 -61 -53 -52 -55 -53
-70 -35 -14 19 -35 94 -29 106 4 7 137 -1 146 -10z m671 -74 c14 -5 16 -11 8
-26 -14 -25 -69 -71 -86 -71 -10 0 -55 132 -55 163 0 3 26 -9 58 -27 31 -17
65 -35 75 -39z m-651 -24 c-2 -43 -8 -82 -12 -86 -9 -10 -60 14 -80 37 -11 14
-6 24 36 70 27 30 51 54 54 55 3 1 4 -34 2 -76z m82 25 c16 -18 38 -43 49 -55
l19 -22 -41 -20 c-22 -12 -52 -21 -66 -21 -25 0 -25 1 -25 85 0 79 1 85 18 76
9 -5 30 -24 46 -43z m439 -25 c26 -95 25 -96 -29 -90 -25 2 -50 9 -55 14 -6 6
3 37 22 82 18 39 35 68 39 64 4 -4 14 -36 23 -70z m-88 -2 c-14 -28 -29 -51
-34 -51 -10 0 -61 57 -61 68 0 10 114 49 118 40 2 -3 -8 -29 -23 -57z m-272
29 c34 0 38 -9 20 -37 l-16 -24 -33 32 c-38 36 -44 55 -15 39 11 -5 30 -10 44
-10z"/>
<path d="M75 1168 c-3 -7 -4 -229 -3 -493 l3 -480 28 -3 c45 -5 132 41 166 88
53 73 73 143 79 266 7 172 -23 269 -108 355 -44 44 -45 47 -31 69 22 32 20
118 -3 153 -32 47 -119 77 -131 45z m91 -137 c-3 -19 -12 -42 -21 -50 -13 -14
-15 -8 -15 59 l1 75 20 -25 c16 -18 19 -33 15 -59z m36 -179 c60 -57 81 -119
86 -249 5 -147 -18 -231 -82 -298 -78 -82 -76 -89 -76 275 0 359 -4 344 72
272z"/>
<path d="M747 1163 c-5 -9 -75 -195 -240 -643 -58 -157 -109 -293 -112 -302
-9 -24 29 -43 48 -24 8 8 40 86 72 173 166 452 172 466 201 481 32 17 100 11
121 -11 8 -8 66 -153 129 -321 62 -169 116 -311 119 -316 7 -11 48 -14 57 -4
3 3 -8 40 -24 82 -16 42 -66 176 -110 297 -44 121 -90 247 -103 280 -12 33
-44 117 -70 188 -37 98 -52 127 -66 127 -10 0 -20 -3 -22 -7z m46 -180 l26
-63 -49 0 -48 0 21 65 c11 35 22 63 23 62 1 -1 13 -30 27 -64z"/>
<path d="M1200 1156 c-16 -20 -16 -944 0 -960 7 -7 16 -7 28 0 15 10 17 44 22
353 l5 341 33 -20 c38 -23 85 -114 102 -195 6 -28 13 -138 16 -245 6 -234 7
-242 37 -238 22 3 22 6 25 168 5 282 -30 442 -115 531 -35 37 -35 37 -18 69
22 42 21 111 -1 148 -31 54 -106 80 -134 48z m85 -91 c16 -37 9 -71 -19 -94
-14 -12 -16 -6 -16 58 0 79 12 91 35 36z"/>
<path d="M1830 1164 c0 -4 6 -52 14 -108 13 -91 25 -177 57 -421 5 -44 14
-109 20 -145 5 -36 14 -105 19 -155 15 -127 18 -135 46 -135 18 0 24 7 28 33
6 38 38 302 61 502 9 77 20 167 25 200 5 33 12 99 16 148 6 83 6 87 -13 87
-11 0 -25 -6 -30 -12 -5 -7 -18 -85 -27 -173 -10 -88 -21 -185 -26 -215 -5
-30 -14 -108 -21 -172 -7 -65 -14 -116 -16 -114 -2 1 -23 151 -47 333 -24 182
-46 335 -50 342 -7 11 -56 16 -56 5z"/>
<path d="M2517 1163 c-5 -8 -63 -164 -246 -658 -100 -270 -109 -301 -95 -312
30 -22 48 3 93 129 98 274 191 512 203 520 39 25 114 20 140 -10 8 -9 63 -150
122 -312 60 -162 114 -305 122 -317 9 -14 20 -20 34 -16 26 7 25 17 -6 99 -14
38 -62 168 -105 289 -44 121 -85 231 -90 245 -6 14 -33 86 -60 160 -71 194
-70 190 -90 190 -10 0 -20 -3 -22 -7z m38 -160 c33 -79 32 -83 -19 -83 l-45 0
21 60 c12 33 23 60 25 60 1 0 10 -17 18 -37z"/>
<path d="M4511 923 c-51 -136 -122 -327 -157 -423 -36 -96 -76 -202 -89 -235
-21 -54 -22 -61 -8 -72 10 -8 22 -9 33 -3 10 5 59 125 129 317 124 338 133
353 202 353 70 0 82 -21 204 -358 65 -180 117 -307 126 -313 10 -5 22 -4 32 4
14 11 -4 66 -162 492 -149 402 -181 480 -198 483 -18 3 -31 -26 -112 -245z
m137 57 l21 -60 -49 0 -48 0 20 52 c21 55 27 68 33 68 2 0 12 -27 23 -60z"/>
<path d="M5051 1156 c-8 -9 -10 -146 -9 -487 l3 -474 25 0 25 0 3 348 c1 200
6 347 11 347 18 0 72 -53 90 -89 44 -87 54 -149 60 -375 5 -189 8 -220 23
-229 12 -8 21 -7 33 3 13 11 16 34 14 144 -4 302 -41 467 -123 549 l-35 35 20
38 c23 47 24 85 2 131 -28 59 -113 95 -142 59z m96 -134 c-6 -35 -23 -62 -38
-62 -5 0 -9 35 -9 78 l1 77 25 -29 c21 -24 25 -36 21 -64z"/>
<path d="M1522 1148 c-14 -14 -17 -924 -3 -946 5 -8 17 -12 27 -10 18 3 19 20
24 338 l5 335 27 -120 c28 -123 113 -492 123 -533 5 -18 11 -23 33 -20 l27 3
3 478 c2 436 1 478 -14 484 -9 3 -24 2 -33 -4 -14 -9 -16 -47 -15 -339 2 -364
4 -360 -54 -109 -97 421 -106 455 -122 455 -9 0 -21 -5 -28 -12z"/>
<path d="M3942 1148 c-9 -9 -12 -128 -12 -474 0 -409 2 -463 16 -475 11 -9 20
-10 32 -2 15 9 18 45 22 324 l5 314 38 -170 c21 -93 55 -239 75 -323 35 -150
37 -153 62 -150 l25 3 3 483 2 483 -27 -3 -28 -3 -5 -330 -5 -330 -23 100
c-42 179 -72 308 -93 400 -37 162 -39 165 -57 165 -10 0 -23 -5 -30 -12z"/>
</g>
</svg>
